<?xml version="1.0" encoding="iso-8859-1"?>
<!-- Generator: Adobe Illustrator 19.0.0, SVG Export Plug-In . SVG Version: 6.00 Build 0)  -->
<svg version="1.1" id="Capa_1" xmlns="http://www.w3.org/2000/svg" xmlns:xlink="http://www.w3.org/1999/xlink" x="0px" y="0px"
	 viewBox="0 0 512 512" style="enable-background:new 0 0 512 512;" xml:space="preserve">
<path style="fill:#F0BEB4;" d="M349.87,290.126h-51.202c-9.43,0-17.067-7.638-17.067-17.067v-34.134h-51.202v34.134
	c0,9.43-7.638,17.067-17.067,17.067H162.13c-37.702,0-68.269,30.567-68.269,68.269v110.937c0,18.851,15.284,34.134,34.134,34.134
	h290.143V358.395C418.139,320.685,387.571,290.126,349.87,290.126z"/>
<path style="fill:#FA4138;" d="M256,8.517c-40.885,0-78.45,22.486-97.77,58.515l156.942-41.303
	C297.482,14.482,276.959,8.508,256,8.517z"/>
<path style="fill:#FB6760;" d="M366.493,110.621c-1.954-24.79-12.22-48.189-29.134-66.417l-44.375,17.383L366.493,110.621z"/>
<path style="fill:#FC807A;" d="M290.134,59.718l2.808,1.869l44.375-17.383c-6.562-7.1-14.021-13.304-22.187-18.475L158.23,67.032
	c-8.662,16.111-13.193,34.126-13.167,52.422l147.879-57.866L290.134,59.718z"/>
<path style="fill:#F0BEB4;" d="M292.942,61.587l-147.879,57.866v25.601c0,61.271,49.666,110.937,110.937,110.937
	s110.937-49.666,110.937-110.937v-25.601c0-2.978-0.213-5.905-0.444-8.832L292.942,61.587z"/>
<path style="fill:#FA4138;" d="M256,221.857L256,221.857c14.14,0,25.601-11.461,25.601-25.601v-8.534h-51.202v8.534
	C230.399,210.388,241.86,221.857,256,221.857z"/>
<path style="fill:#FC807A;" d="M170.664,435.197h153.605c18.851,0,34.134,15.284,34.134,34.134l0,0
	c0,18.851-15.284,34.134-34.134,34.134H170.664V435.197z"/>
<g>
	<polygon style="fill:#E3E7E9;" points="213.332,290.126 247.466,503.466 145.063,503.466 179.197,290.126 	"/>
	<polygon style="fill:#E3E7E9;" points="273.067,435.197 307.202,290.126 341.336,290.126 307.202,435.197 	"/>
</g>
<path d="M290.134,196.256v-17.067h-68.269v17.067c0,18.851,15.284,34.134,34.134,34.134
	C274.851,230.391,290.134,215.107,290.134,196.256z M238.933,196.256h34.134c0,9.43-7.638,17.067-17.067,17.067
	C246.57,213.323,238.933,205.677,238.933,196.256z"/>
<path d="M238.933,136.521v-8.534h-17.067v8.534c0,4.711-3.823,8.534-8.534,8.534c-4.711,0-8.534-3.823-8.534-8.534v-8.534h-17.067
	v8.534c0,14.14,11.461,25.601,25.601,25.601C227.472,162.122,238.933,150.653,238.933,136.521z"/>
<path d="M298.668,162.122c14.14,0,25.601-11.461,25.601-25.601v-8.534h-17.067v8.534c0,4.711-3.823,8.534-8.534,8.534
	s-8.534-3.823-8.534-8.534v-8.534h-17.067v8.534C273.067,150.653,284.528,162.122,298.668,162.122z"/>
<path d="M352.089,281.703v-0.111h-53.42c-4.711,0-8.534-3.823-8.534-8.534V259.49c50.579-15.139,85.259-61.638,85.336-114.436
	v-25.601C375.513,53.523,322.11,0.043,256.179,0c-42.66-0.026-82.093,22.716-103.436,59.659L151.438,60l0.333,1.254
	c-10.001,17.767-15.25,37.812-15.241,58.199v25.601c0.077,52.797,34.757,99.297,85.336,114.436v13.568
	c0,4.711-3.823,8.534-8.534,8.534H162.13c-42.395,0.051-76.751,34.408-76.803,76.803v110.937
	c0.026,23.553,19.115,42.643,42.668,42.668h298.677V358.395C426.63,316.87,393.588,282.898,352.089,281.703z M330.558,298.66
	l-30.115,128.004h-16.598L313.96,298.66H330.558z M154.493,106.593c1.417-11.247,4.711-22.17,9.745-32.325l149.475-39.297
	c2.808,1.929,5.513,3.994,8.107,6.187L154.493,106.593z M334.953,54.316c9.208,11.188,15.932,24.201,19.73,38.179l-43.385-28.92
	L334.953,54.316z M256,17.05c11.904,0.017,23.706,2.133,34.885,6.247L178.344,52.891C197.741,30.158,226.115,17.059,256,17.05z
	 M153.597,145.054v-19.772l138.313-54.12l66.289,44.187c0.051,1.374,0.205,2.722,0.205,4.105v25.601
	c0,56.552-45.851,102.403-102.403,102.403S153.597,201.607,153.597,145.054z M273.067,264.525v8.534
	c0.043,13.253,10.206,24.27,23.416,25.379l-30.175,128.226h-22.486l-20.796-129.941c9.609-3.934,15.898-13.278,15.907-23.664v-8.534
	H273.067z M127.996,494.933c-14.14,0-25.601-11.461-25.601-25.601V358.395c0.034-32.974,26.761-59.701,59.735-59.735h7.057
	l-20.481,128.004h-12.177v17.067h9.447l-8.192,51.202H127.996z M187.731,494.933h-32.658l31.404-196.273h19.585l31.404,196.273
	H187.731z M254.746,494.933l-8.192-51.202h77.716c14.14,0,25.601,11.461,25.601,25.601c0,14.14-11.461,25.601-25.601,25.601H254.746
	z M409.605,494.933h-51.424c5.649-7.339,8.721-16.342,8.755-25.601c-0.026-23.553-19.115-42.642-42.668-42.668h-6.289
	l30.124-128.004h1.766c32.974,0.034,59.701,26.761,59.735,59.735V494.933z"/>
<g>
</g>
<g>
</g>
<g>
</g>
<g>
</g>
<g>
</g>
<g>
</g>
<g>
</g>
<g>
</g>
<g>
</g>
<g>
</g>
<g>
</g>
<g>
</g>
<g>
</g>
<g>
</g>
<g>
</g>
</svg>
